<svg xmlns="http://www.w3.org/2000/svg" xmlns:xlink="http://www.w3.org/1999/xlink" version="1.1" width="16" height="16" viewBox="0 0 16 16" xml:space="preserve">
    <desc>
        Created with Fabric.js 5.4.0
    </desc>
    <defs/>
    <rect x="0" y="0" width="100%" height="100%" fill="transparent"/>
    <g transform="matrix(1 0 0 1 8.5 8.59)">
        <g style="">
            <g transform="matrix(1 0 0 1 0 -0.3)">
                <rect x="-7.052235709749124" y="-6.215" rx="0" ry="0" width="14.104471419498248" height="12.43" stroke="rgb(255,255,255)" stroke-opacity="0" stroke-width="1" stroke-dasharray="none" stroke-linecap="butt" stroke-dashoffset="0" stroke-linejoin="miter" stroke-miterlimit="4" fill="rgb(255,255,255)" fill-opacity="0" fill-rule="nonzero" opacity="1"/>
            </g>
            <g transform="matrix(1 0 0 1 -4.34 0.94)">
                <path paint-order="stroke" transform=" translate(-4.15, -9.54)" d="M 6.3 9.03 Q 6.3 8.7 6.47 8.53 Q 6.63 8.36 6.87 8.36 Q 7.11 8.36 7.29 8.51 L 7.29 8.51 L 7.29 12.87 Q 7.29 14.24 6.87 14.92 Q 6.45 15.61 5.54 15.61 L 5.54 15.61 Q 4.99 15.61 4.68 15.25 Q 4.38 14.9 4.38 14.25 L 4.38 14.25 Q 4.38 13.21 4.94 12.56 Q 5.51 11.91 6.3 11.76 L 6.3 11.76 L 6.3 11.45 Q 5.6 11.72 4.68 11.72 L 4.68 11.72 Q 3.02 11.72 2.02 10.69 Q 1.02 9.67 1.02 7.64 Q 1.02 5.61 2.04 4.53 Q 3.06 3.46 4.71 3.46 L 4.71 3.46 Q 5.89 3.46 6.58 4.01 Q 7.26 4.56 7.26 5.23 L 7.26 5.23 Q 7.26 5.51 7.09 5.67 Q 6.93 5.84 6.76 5.84 L 6.76 5.84 Q 6.45 5.84 6.34 5.71 L 6.34 5.71 Q 6.41 5.54 6.41 5.3 L 6.41 5.3 Q 6.41 4.7 5.95 4.35 Q 5.5 4 4.65 4 L 4.65 4 Q 3.56 4 2.8 5.04 Q 2.03 6.08 2.03 7.7 Q 2.03 9.31 2.8 10.24 Q 3.57 11.17 4.68 11.17 L 4.68 11.17 Q 5.59 11.17 6.3 10.84 L 6.3 10.84 L 6.3 9.03 Z M 4.88 14.29 Q 4.88 14.7 5.06 14.92 Q 5.24 15.14 5.59 15.14 Q 5.93 15.14 6.11 14.65 Q 6.3 14.16 6.3 12.87 L 6.3 12.87 L 6.3 12.33 Q 5.67 12.47 5.28 12.98 Q 4.88 13.49 4.88 14.29 L 4.88 14.29 Z" stroke-linecap="butt" stroke="rgb(255,255,255)" stroke-width="0" stroke-dasharray="none" stroke-dashoffset="0" stroke-linejoin="miter" stroke-miterlimit="4" fill="rgb(54,54,54)" fill-rule="nonzero" opacity="1"/>
            </g>
            <g transform="matrix(1 0 0 1 1.61 -1.66)">
                <path paint-order="stroke" transform=" translate(-10.11, -6.93)" d="M 6.38 9.57 Q 6.38 9.41 6.47 9.31 Q 6.56 9.21 6.69 9.21 Q 6.82 9.21 6.88 9.28 L 6.88 9.28 Q 6.88 9.89 7.27 10.33 Q 7.66 10.77 8.31 10.99 L 8.31 10.99 L 8.31 3.9 Q 7.24 4.18 7.24 4.8 L 7.24 4.8 Q 7.24 5.01 7.3 5.21 L 7.3 5.21 Q 7.24 5.34 7 5.34 Q 6.77 5.34 6.61 5.18 Q 6.44 5.01 6.44 4.74 L 6.44 4.74 Q 6.44 4.24 6.94 3.87 Q 7.44 3.49 8.31 3.32 L 8.31 3.32 L 8.31 2.81 Q 8.31 2.48 8.48 2.31 Q 8.64 2.14 8.89 2.14 Q 9.13 2.14 9.3 2.3 L 9.3 2.3 L 9.3 3.21 Q 9.41 3.2 9.63 3.2 L 9.63 3.2 Q 11.46 3.2 12.61 4.23 L 12.61 4.23 Q 13.19 4.76 13.51 5.63 Q 13.84 6.51 13.84 7.66 L 13.84 7.66 Q 13.84 9.67 12.65 10.69 Q 11.47 11.72 9.51 11.72 L 9.51 11.72 Q 8.03 11.72 7.2 11.07 Q 6.38 10.42 6.38 9.57 L 6.38 9.57 Z M 9.69 3.74 L 9.69 3.74 L 9.35 3.75 L 9.35 11.17 L 9.51 11.17 Q 11.02 11.17 11.92 10.34 Q 12.82 9.5 12.82 7.64 Q 12.82 5.77 11.98 4.75 Q 11.13 3.74 9.69 3.74 Z" stroke-linecap="butt" stroke="rgb(255,255,255)" stroke-width="0" stroke-dasharray="none" stroke-dashoffset="0" stroke-linejoin="miter" stroke-miterlimit="4" fill="rgb(54,54,54)" fill-rule="nonzero" opacity="1"/>
            </g>
        </g>
    </g>
</svg>
